<svg width="141" height="141" viewBox="0 0 141 141" fill="none" xmlns="http://www.w3.org/2000/svg">
<g clip-path="url(#clip0)">
<path d="M114.443 101.648L111.744 105.169L111.01 104.609L113.708 101.088L114.443 101.648ZM114.707 101.299L114.032 102.173L108.506 97.9441L109.181 97.0695L114.707 101.299ZM109.718 102.888C109.371 103.052 109.013 103.112 108.647 103.057C108.282 103.003 107.931 102.849 107.584 102.592C107.334 102.398 107.137 102.181 106.993 101.943C106.85 101.705 106.769 101.449 106.741 101.188C106.72 100.924 106.75 100.654 106.84 100.375C106.93 100.097 107.078 99.8266 107.281 99.5571L108.653 97.7675L109.366 98.3125L108.066 100.01C107.907 100.215 107.81 100.418 107.771 100.629C107.729 100.834 107.746 101.029 107.829 101.214C107.911 101.399 108.051 101.568 108.262 101.724C108.47 101.89 108.677 101.977 108.885 102.009C109.091 102.035 109.288 102.002 109.486 101.914C109.682 101.819 109.851 101.679 110 101.487L111.311 99.7767L112.026 100.328L110.654 102.118C110.38 102.463 110.065 102.724 109.718 102.888Z" fill="#706A75"/>
<path d="M102.561 104.696L107.375 109.71L108.195 108.924L103.38 103.91L102.561 104.696Z" fill="#706A75"/>
<path d="M96.0633 111.1C96.0203 110.821 96.0552 110.542 96.1545 110.267C96.2578 109.984 96.4216 109.714 96.6365 109.456C96.858 109.194 97.1374 108.94 97.4879 108.689C97.9414 108.364 98.3794 108.155 98.8058 108.052C99.2322 107.949 99.6297 107.967 100.009 108.094C100.382 108.223 100.735 108.478 101.068 108.857L100.288 109.665C100.068 109.411 99.8455 109.229 99.614 109.12C99.3798 109.005 99.1326 108.972 98.8697 109.017C98.6068 109.061 98.3147 109.187 97.999 109.409C97.7929 109.555 97.6258 109.701 97.5031 109.86C97.3777 110.012 97.2872 110.174 97.2356 110.335C97.1841 110.497 97.1714 110.658 97.1977 110.819C97.2241 110.979 97.2906 111.124 97.3893 111.271C97.538 111.484 97.7119 111.624 97.911 111.691C98.1006 111.754 98.3275 111.756 98.5756 111.694C98.8303 111.63 99.0941 111.491 99.3858 111.287L100.052 110.814L100.56 111.528L99.8942 112.001C99.7189 112.127 99.5652 112.267 99.4437 112.41C99.325 112.56 99.2291 112.708 99.1721 112.856C99.1084 113.006 99.0903 113.154 99.1072 113.311C99.1241 113.468 99.1894 113.629 99.3002 113.786C99.3908 113.913 99.5028 114.016 99.6333 114.088C99.7639 114.159 99.9104 114.194 100.069 114.199C100.227 114.205 100.395 114.176 100.565 114.115C100.735 114.054 100.915 113.957 101.097 113.829C101.371 113.639 101.569 113.434 101.69 113.214C101.814 113 101.872 112.758 101.869 112.501C101.866 112.245 101.783 111.983 101.635 111.715L102.627 111.274C102.822 111.678 102.921 112.074 102.907 112.462C102.899 112.847 102.789 113.212 102.574 113.564C102.358 113.917 102.028 114.238 101.598 114.545C101.276 114.77 100.964 114.943 100.66 115.059C100.349 115.177 100.059 115.233 99.78 115.237C99.5008 115.241 99.2494 115.179 99.022 115.061C98.7945 114.943 98.5882 114.762 98.4164 114.512C98.2852 114.323 98.197 114.125 98.1516 113.917C98.1063 113.71 98.1066 113.499 98.1592 113.283C98.2118 113.066 98.3034 112.85 98.4446 112.621C98.5885 112.399 98.7807 112.18 99.0307 111.969L99.2437 112.148C98.8543 112.4 98.4819 112.559 98.1291 112.632C97.7764 112.705 97.4635 112.684 97.1742 112.567C96.885 112.451 96.6356 112.24 96.4165 111.931C96.2178 111.653 96.1063 111.379 96.0633 111.1Z" fill="#706A75"/>
<path d="M90.6695 120.418L89.638 120.876L86.8151 114.52L87.8533 114.059L90.6695 120.418ZM94.9804 118.504L93.9422 118.965L91.1193 112.608L92.1575 112.148L94.9804 118.504ZM93.1012 116.163L89.2136 117.89L88.8389 117.044L92.7264 115.317L93.1012 116.163Z" fill="#706A75"/>
<path d="M84.4434 122.517L83.337 122.772L81.7795 115.995L82.8858 115.741L84.4434 122.517ZM83.7004 122.686L79.9616 123.549L79.7531 122.651L83.4919 121.788L83.7004 122.686ZM83.0418 119.834L79.7227 120.597L79.5154 119.683L82.8412 118.917L83.0418 119.834ZM82.3541 116.815L78.5496 117.689L78.3411 116.791L82.1523 115.914L82.3541 116.815Z" fill="#706A75"/>
<path d="M75.3204 121.901C75.2364 122.27 75.1092 122.61 74.9361 122.915C74.7631 123.219 74.555 123.475 74.2915 123.691C74.0348 123.905 73.7457 124.077 73.4147 124.203C73.0904 124.327 72.731 124.403 72.3377 124.414C71.7846 124.436 71.2942 124.362 70.8759 124.197C70.4575 124.031 70.1112 123.774 69.8369 123.426C69.5653 123.083 69.3591 122.652 69.221 122.139L70.3447 121.87C70.4337 122.224 70.5561 122.525 70.7278 122.775C70.9063 123.022 71.122 123.208 71.3817 123.329C71.6414 123.449 71.9491 123.496 72.3102 123.482C72.5706 123.47 72.808 123.42 73.0251 123.34C73.2395 123.253 73.4336 123.135 73.5885 122.978C73.7435 122.822 73.8781 122.635 73.9831 122.413C74.0881 122.191 74.166 121.941 74.217 121.663C74.268 121.384 74.2853 121.081 74.2689 120.752C74.2552 120.43 74.2107 120.129 74.1449 119.851C74.0724 119.577 73.9812 119.333 73.858 119.126C73.7415 118.916 73.5902 118.735 73.4163 118.595C73.2424 118.455 73.0499 118.346 72.8347 118.278C72.6196 118.209 72.3751 118.184 72.0986 118.194C71.7375 118.208 71.4264 118.288 71.1654 118.433C70.911 118.575 70.7066 118.783 70.5495 119.05C70.3924 119.316 70.296 119.636 70.2468 120.015L69.1155 119.842C69.1867 119.307 69.3483 118.859 69.6015 118.483C69.8547 118.107 70.1889 117.816 70.6068 117.615C71.022 117.407 71.5074 117.296 72.0605 117.274C72.4054 117.259 72.7211 117.287 73.0208 117.352C73.3138 117.42 73.5882 117.519 73.8305 117.655C74.0756 117.797 74.2926 117.966 74.4815 118.163C74.6705 118.359 74.8274 118.592 74.9629 118.848C75.0984 119.105 75.2019 119.399 75.2813 119.71C75.3608 120.021 75.4027 120.354 75.4139 120.709C75.4388 121.135 75.4045 121.531 75.3204 121.901Z" fill="#706A75"/>
<path d="M20.1084 50.6187L20.5571 49.6098L26.9082 52.451L26.4568 53.4532L20.1084 50.6187ZM27.7687 48.3816C27.9513 48.6584 28.0429 48.9799 28.0501 49.3436C28.0573 49.7072 27.9612 50.1049 27.7687 50.534L26.8764 52.5263L26.0677 52.1684L26.9043 50.3079C27.0145 50.0604 27.0711 49.8347 27.0674 49.6334C27.0637 49.4321 27.0064 49.2526 26.905 49.0988C26.7968 48.9478 26.6472 48.8292 26.4467 48.739C26.2247 48.6342 26.0097 48.6045 25.8192 48.6351C25.622 48.6684 25.4466 48.7552 25.2862 48.8983C25.1258 49.0414 24.9911 49.2287 24.8889 49.4574L24.0045 51.4308L23.1865 51.0689L24.0243 49.1923C24.0987 49.0296 24.1435 48.871 24.1561 48.7099C24.1715 48.5555 24.1573 48.4053 24.1191 48.2726C24.0808 48.14 24.009 48.0209 23.9132 47.9195C23.8174 47.818 23.6975 47.7341 23.5535 47.6678C23.353 47.5776 23.1581 47.5398 22.981 47.5649C22.804 47.59 22.6392 47.6647 22.4935 47.7863C22.3477 47.9079 22.2197 48.0924 22.1175 48.3211L21.265 50.2192L20.4563 49.8613L21.3765 47.8031C21.5106 47.4991 21.6664 47.2486 21.848 47.0423C22.0229 46.8388 22.2195 46.6887 22.4351 46.5856C22.6441 46.4851 22.872 46.4316 23.115 46.4343C23.3554 46.4303 23.604 46.4853 23.8543 46.602C24.0548 46.6922 24.2245 46.8026 24.3662 46.9401C24.5051 47.0708 24.616 47.2286 24.7028 47.4039C24.7896 47.5792 24.8362 47.7709 24.856 47.9734C24.8758 48.1759 24.8594 48.3853 24.8095 48.6084L24.5788 48.6552C24.7759 48.3334 24.9935 48.0813 25.2543 47.8974C25.5058 47.7095 25.7832 47.6047 26.0811 47.5695C26.379 47.5343 26.676 47.5931 26.9801 47.727C27.3178 47.8862 27.5861 48.1048 27.7687 48.3816Z" fill="#706A75"/>
<path d="M32.3743 40.2176C32.5718 40.5118 32.6901 40.8224 32.7388 41.1536C32.7874 41.4848 32.7609 41.8231 32.6593 42.1686C32.5576 42.514 32.3835 42.8732 32.1249 43.2356C31.8769 43.5859 31.6017 43.8692 31.31 44.0734C31.0117 44.2803 30.7023 44.4216 30.379 44.4904C30.0491 44.562 29.7161 44.5491 29.376 44.461C29.0359 44.3729 28.686 44.2031 28.3357 43.9554L24.7652 41.4278L25.4145 40.5091L29.0253 43.0593C29.3204 43.267 29.615 43.3969 29.8945 43.4316C30.1833 43.4703 30.4462 43.4259 30.6994 43.2997C30.9525 43.1736 31.1757 42.9738 31.373 42.6909C31.5263 42.4726 31.6273 42.2601 31.6893 42.0477C31.7447 41.8381 31.7544 41.6314 31.7212 41.4343C31.688 41.2372 31.6091 41.043 31.4807 40.8612C31.3522 40.6794 31.1714 40.5033 30.9438 40.3462L27.3397 37.7933L27.9889 36.8746L31.5593 39.4021C31.9029 39.6525 32.1768 39.9235 32.3743 40.2176Z" fill="#706A75"/>
<path d="M35.0747 35.893C35.3403 36.1049 35.6054 36.239 35.8769 36.2925C36.1416 36.3488 36.4127 36.3245 36.6834 36.2224C36.9541 36.1203 37.2177 35.943 37.4836 35.6947C37.6761 35.5152 37.8296 35.3358 37.9375 35.1595C38.0481 34.9898 38.1197 34.8203 38.1646 34.6617C38.2094 34.5031 38.2047 34.3569 38.1637 34.2175C38.116 34.0809 38.0416 33.9552 37.9336 33.843C37.7811 33.6788 37.6101 33.5845 37.4341 33.5546C37.258 33.5247 37.0608 33.5579 36.8504 33.6356C36.6361 33.7226 36.3924 33.8528 36.126 34.0233L35.5011 34.4253C35.2308 34.6052 34.9603 34.7462 34.695 34.8618C34.4297 34.9773 34.1777 35.0484 33.9361 35.0685C33.6973 35.0953 33.4568 35.0604 33.2335 34.9717C33.0102 34.883 32.7892 34.7232 32.576 34.5056C32.3722 34.292 32.2314 34.0606 32.1415 33.8008C32.0516 33.5409 32.0341 33.2673 32.0757 32.9852C32.1172 32.7032 32.2178 32.4128 32.3869 32.118C32.5559 31.8232 32.7827 31.5361 33.0767 31.2608C33.483 30.8774 33.8737 30.6096 34.2543 30.4707C34.6388 30.3223 35.0173 30.2934 35.3909 30.3679C35.7645 30.4423 36.136 30.6268 36.5026 30.9147L35.8289 31.7732C35.4528 31.4813 35.0937 31.3464 34.7475 31.3778C34.4012 31.4092 34.0464 31.5923 33.6816 31.9432C33.5132 32.1051 33.3811 32.2602 33.2839 32.4244C33.1867 32.5887 33.123 32.7393 33.0983 32.8897C33.0735 33.0402 33.0755 33.1797 33.1205 33.3096C33.1587 33.4423 33.2305 33.5613 33.333 33.6601C33.495 33.8283 33.6659 33.9226 33.8432 33.9364C34.0205 33.9502 34.2244 33.9142 34.4333 33.8138C34.645 33.72 34.8927 33.5805 35.1724 33.4045L35.7867 33.0147C36.1615 32.7845 36.5151 32.6175 36.8515 32.5043C37.1812 32.3938 37.5007 32.3733 37.8004 32.4388C38.1001 32.5042 38.3937 32.6892 38.6812 32.9936C38.912 33.2352 39.0609 33.4867 39.1402 33.7587C39.2194 34.0306 39.2329 34.3137 39.1846 34.5985C39.1324 34.8926 39.009 35.1845 38.8265 35.4847C38.6441 35.785 38.3972 36.0802 38.0858 36.3704C37.7598 36.6822 37.4428 36.9201 37.1281 37.0869C36.8134 37.2536 36.5105 37.3532 36.2032 37.3844C35.9026 37.4129 35.6003 37.3797 35.3004 37.2753C35.0005 37.1709 34.6962 36.9981 34.3809 36.7596L35.0747 35.893Z" fill="#706A75"/>
<path d="M38.956 26.5127L42.9408 32.2087L43.8711 31.5583L39.8863 25.8623L38.956 26.5127Z" fill="#706A75"/>
<path d="M44.3455 23.0348L45.2589 22.5937L48.2773 28.8549L47.3639 29.296L44.3455 23.0348ZM44.8678 23.3219L45.0299 22.7023L45.3701 22.5408L52.0772 26.5086L51.8159 27.1528L51.5561 27.2817L44.8678 23.3219ZM48.6528 20.9583L49.5596 20.5199L52.578 26.781L51.6713 27.2194L48.6528 20.9583Z" fill="#706A75"/>
<path d="M56.9814 24.3459L60.7598 23.3497L60.9979 24.2435L57.2194 25.2397L56.9814 24.3459ZM54.7018 18.7128L55.7946 18.425L57.5667 25.1532L56.4673 25.4437L54.7018 18.7128ZM56.1878 21.3537L59.4862 20.4823L59.7203 21.3854L56.4219 22.2569L56.1878 21.3537ZM55.4433 18.5209L59.1521 17.5452L59.3901 18.439L55.6814 19.4146L55.4433 18.5209Z" fill="#706A75"/>
<path d="M64.8029 21.3332C64.8771 21.6696 65.0019 21.9387 65.1708 22.1431C65.3423 22.3542 65.5673 22.5046 65.839 22.597C66.1106 22.6895 66.4263 22.7173 66.7913 22.6939C67.0557 22.6723 67.2891 22.6321 67.4794 22.5626C67.6724 22.4998 67.8345 22.4184 67.9656 22.3184C68.0966 22.2184 68.19 22.1025 68.2458 21.9707C68.3015 21.8389 68.3196 21.6912 68.3094 21.5315C68.2881 21.3062 68.2241 21.1294 68.0986 20.9932C67.9758 20.8637 67.8088 20.76 67.5936 20.6913C67.3785 20.6227 67.107 20.5692 66.7819 20.5374L66.0458 20.4542C65.7274 20.4197 65.4237 20.3636 65.1414 20.2833C64.8618 20.2097 64.6209 20.0969 64.4202 19.9679C64.2168 19.8321 64.0548 19.6639 63.9356 19.4472C63.8164 19.2304 63.7453 18.9785 63.721 18.6687C63.6953 18.3749 63.7329 18.1023 63.8337 17.8508C63.9318 17.5926 64.0823 17.3677 64.2922 17.1733C64.502 16.9789 64.767 16.8245 65.0819 16.6967C65.3995 16.5755 65.7562 16.4931 66.1575 16.4627C66.7091 16.4181 67.1859 16.4584 67.5745 16.5892C67.9632 16.7199 68.2811 16.9262 68.5202 17.2268C68.7633 17.518 68.9317 17.8942 69.0387 18.3499L67.9752 18.5945C67.8655 18.1322 67.6678 17.7991 67.3849 17.602C67.102 17.405 66.7096 17.3226 66.1969 17.3669C65.962 17.3843 65.7609 17.427 65.584 17.491C65.4071 17.5551 65.2611 17.6377 65.1435 17.7323C65.0285 17.8336 64.9485 17.944 64.8967 18.0664C64.8477 18.1955 64.8309 18.3271 64.8357 18.4734C64.8529 18.7081 64.9236 18.8822 65.0598 19.0063C65.1894 19.133 65.367 19.2247 65.5929 19.2811C65.8187 19.3376 66.0969 19.3884 66.4274 19.4336L67.1541 19.5128C67.5907 19.5695 67.9725 19.6641 68.3034 19.7871C68.6343 19.9101 68.8956 20.0925 69.0875 20.3343C69.2793 20.5762 69.3897 20.9057 69.4253 21.3201C69.4512 21.6528 69.4056 21.9442 69.3009 22.2051C69.1961 22.4661 69.0227 22.6924 68.7968 22.8856C68.5708 23.0787 68.2924 23.2386 67.9626 23.349C67.6329 23.4595 67.2507 23.5368 66.8293 23.5753C66.3757 23.6113 65.9782 23.5933 65.6328 23.5308C65.2875 23.4683 64.9821 23.3505 64.7262 23.1815C64.473 23.0191 64.2598 22.8016 64.0933 22.526C63.9295 22.2572 63.7963 21.9291 63.7098 21.5431L64.8029 21.3332Z" fill="#706A75"/>
<path d="M73.8995 21.1338C73.9119 21.4719 73.9832 21.7627 74.1105 21.9995C74.2379 22.2364 74.4308 22.4232 74.6853 22.5694C74.9371 22.7089 75.2449 22.7945 75.605 22.8355C75.8656 22.8622 76.1019 22.8677 76.3058 22.8317C76.5057 22.8051 76.6813 22.7572 76.83 22.6812C76.9813 22.6119 77.0896 22.5134 77.1669 22.3962C77.2414 22.2724 77.2878 22.1366 77.3071 21.9727C77.3342 21.7512 77.297 21.5635 77.2022 21.407C77.1102 21.2572 76.9618 21.1225 76.7626 21.0162C76.5634 20.91 76.3024 20.8054 75.9918 20.7131L75.2886 20.4996C74.978 20.4073 74.6915 20.2975 74.4357 20.1674C74.1733 20.04 73.9577 19.8935 73.7864 19.7214C73.6083 19.5519 73.4878 19.3513 73.4088 19.1182C73.3298 18.8851 73.3083 18.6209 73.3417 18.3188C73.3739 18.0328 73.4598 17.7639 73.601 17.535C73.7394 17.2994 73.9358 17.1105 74.1781 16.9575C74.4203 16.8046 74.7071 16.7037 75.0398 16.6388C75.3724 16.574 75.7429 16.5639 76.1419 16.6047C76.6953 16.6607 77.1551 16.7937 77.5092 16.9931C77.87 17.1897 78.1412 17.454 78.3254 17.7925C78.507 18.1243 78.6084 18.5277 78.6268 18.9959L77.5341 19.034C77.513 18.5591 77.3823 18.1988 77.1421 17.9532C76.9019 17.7076 76.5279 17.5553 76.0228 17.5031C75.7945 17.4788 75.5837 17.4786 75.3932 17.5092C75.2027 17.5397 75.0459 17.5956 74.92 17.6701C74.7875 17.7473 74.686 17.8431 74.6154 17.9576C74.5448 18.072 74.4957 18.2011 74.4844 18.3461C74.46 18.5744 74.4972 18.762 74.6054 18.9131C74.7108 19.0574 74.8631 19.1828 75.0758 19.2836C75.2884 19.3844 75.5534 19.4796 75.8694 19.5852L76.5659 19.8015C76.9828 19.9442 77.3434 20.1019 77.6437 20.2841C77.944 20.4663 78.1694 20.6946 78.3103 20.9649C78.4513 21.2352 78.5054 21.5798 78.4565 21.9974C78.4178 22.325 78.3239 22.6127 78.1693 22.847C78.0148 23.0814 77.805 23.2757 77.5533 23.4247C77.2949 23.5764 76.992 23.676 76.6472 23.7302C76.3025 23.7845 75.9131 23.7866 75.4886 23.7406C75.0386 23.6893 74.6529 23.6042 74.3193 23.4745C73.9857 23.3448 73.7136 23.1745 73.4964 22.9664C73.2792 22.7582 73.1048 22.5015 72.9946 22.2109C72.8816 21.9136 72.8115 21.5678 72.8001 21.1747L73.8995 21.1338Z" fill="#706A75"/>
<path d="M87.4996 21.5151C87.7371 21.2159 87.9936 20.9635 88.2692 20.7581C88.5541 20.5566 88.8541 20.4113 89.1759 20.3197C89.4977 20.228 89.8372 20.1993 90.1891 20.2202C90.5342 20.2438 90.8971 20.3304 91.255 20.4815C91.7703 20.6934 92.1771 20.9649 92.4888 21.2907C92.7939 21.6191 93.0012 21.9951 93.1134 22.4252C93.2162 22.8514 93.2213 23.3251 93.1286 23.8462L91.9916 23.6216C92.065 23.2642 92.0714 22.9341 92.023 22.6418C91.9718 22.3429 91.8524 22.0872 91.6714 21.8721C91.481 21.6531 91.2224 21.4774 90.8955 21.3449C90.66 21.2456 90.4181 21.1879 90.1857 21.173C89.9534 21.1582 89.7307 21.1862 89.5203 21.2639C89.3166 21.3388 89.1158 21.4593 88.9219 21.616C88.728 21.7727 88.5571 21.9669 88.3931 22.1973C88.2291 22.4276 88.0882 22.6954 87.9635 23.0034C87.8361 23.3047 87.7516 23.5964 87.7007 23.8744C87.6497 24.1525 87.6322 24.4169 87.6589 24.6556C87.6789 24.8971 87.7391 25.1222 87.834 25.3176C87.9317 25.5197 88.0641 25.6921 88.2301 25.8509C88.4 26.0003 88.6101 26.1333 88.8617 26.2339C89.198 26.3703 89.5111 26.4303 89.805 26.4046C90.0989 26.3788 90.3696 26.2767 90.6265 26.1022C90.8767 25.9304 91.101 25.6756 91.3048 25.3511L92.2571 25.986C91.9654 26.4398 91.6301 26.7865 91.2392 27.0154C90.851 27.251 90.4261 27.3768 89.9683 27.3833C89.5065 27.3992 89.0186 27.2932 88.5034 27.0813C88.1859 26.9528 87.9032 26.7947 87.6646 26.6108C87.4261 26.4269 87.2183 26.2227 87.0547 25.9928C86.8911 25.7629 86.761 25.5194 86.6778 25.2568C86.5879 24.997 86.5382 24.7208 86.5287 24.4283C86.5124 24.1385 86.5364 23.8324 86.6006 23.51C86.6648 23.1876 86.7639 22.8744 86.8966 22.5476C87.0692 22.1655 87.2688 21.8115 87.4996 21.5151Z" fill="#706A75"/>
<path d="M95.1675 29.2887L98.7233 31.5882L98.2183 32.3626L94.6625 30.0631L95.1675 29.2887ZM98.2133 24.0668L99.1642 24.6789L95.3857 30.5181L94.4348 29.906L98.2133 24.0668Z" fill="#706A75"/>
<path d="M106.75 31.6355L106.928 31.805L101.09 34.6669L100.284 33.9104L107.027 30.704L107.864 31.4953L105.064 38.4187L104.228 37.6275L106.75 31.6355ZM103.206 32.9578L105.824 35.4275L105.21 36.1058L102.57 33.6215L103.206 32.9578Z" fill="#706A75"/>
<path d="M109.253 39.8764C109.005 40.1099 108.839 40.3564 108.751 40.6186C108.659 40.874 108.651 41.1425 108.717 41.4199C108.783 41.6973 108.923 41.9837 109.136 42.2791C109.294 42.4957 109.45 42.6666 109.605 42.7986C109.76 42.9306 109.915 43.0237 110.065 43.0873C110.216 43.1509 110.364 43.1689 110.502 43.1439C110.647 43.1163 110.781 43.0619 110.905 42.9646C111.084 42.8294 111.203 42.6798 111.259 42.5091C111.308 42.3411 111.304 42.1398 111.253 41.9187C111.196 41.7003 111.099 41.4432 110.963 41.1473L110.646 40.4808C110.503 40.1877 110.396 39.9038 110.321 39.6224C110.239 39.3437 110.204 39.0849 110.213 38.8393C110.223 38.5936 110.286 38.3652 110.403 38.1538C110.52 37.9425 110.705 37.7429 110.952 37.5644C111.186 37.3914 111.438 37.2813 111.712 37.2248C111.979 37.171 112.25 37.1857 112.526 37.2687C112.798 37.345 113.076 37.4898 113.345 37.6923C113.615 37.8948 113.873 38.1645 114.106 38.4906C114.438 38.9411 114.641 39.3654 114.74 39.762C114.832 40.1614 114.815 40.5426 114.693 40.8962C114.567 41.2592 114.339 41.6013 114.003 41.9252L113.24 41.143C113.578 40.803 113.754 40.4665 113.78 40.1282C113.804 39.7832 113.661 39.4123 113.36 38.9966C113.222 38.8108 113.082 38.6573 112.932 38.5386C112.782 38.42 112.64 38.3376 112.497 38.2941C112.352 38.2439 112.216 38.2366 112.078 38.2615C111.94 38.2864 111.815 38.3448 111.699 38.4232C111.513 38.5611 111.397 38.7174 111.357 38.8894C111.321 39.0681 111.331 39.2666 111.398 39.489C111.465 39.7114 111.571 39.9725 111.709 40.275L112.017 40.9376C112.197 41.3406 112.317 41.713 112.387 42.0588C112.457 42.4046 112.436 42.7174 112.329 43.0105C112.221 43.3037 112 43.5652 111.663 43.8113C111.391 44.0073 111.119 44.1256 110.84 44.1687C110.561 44.2118 110.278 44.1865 109.999 44.0968C109.714 44.0098 109.438 43.8489 109.17 43.6303C108.899 43.405 108.636 43.1219 108.387 42.7784C108.123 42.4175 107.927 42.0683 107.8 41.7375C107.674 41.4068 107.615 41.0877 107.625 40.7871C107.633 40.4797 107.711 40.1908 107.853 39.9069C107.995 39.6229 108.209 39.3413 108.487 39.0647L109.253 39.8764Z" fill="#706A75"/>
<path d="M114.18 47.5144C113.897 47.6997 113.686 47.9102 113.557 48.1498C113.425 48.3827 113.362 48.6501 113.375 48.9331C113.391 49.2229 113.468 49.5271 113.627 49.8604C113.741 50.1027 113.859 50.2966 113.992 50.4529C114.126 50.6092 114.255 50.7359 114.391 50.8211C114.53 50.9129 114.673 50.9564 114.812 50.9543C114.955 50.9589 115.097 50.9246 115.239 50.8514C115.441 50.7536 115.584 50.6254 115.668 50.4666C115.752 50.3078 115.783 50.1157 115.768 49.8877C115.754 49.6596 115.707 49.3901 115.627 49.0792L115.44 48.3677C115.361 48.0568 115.3 47.7538 115.277 47.4668C115.247 47.1825 115.265 46.918 115.316 46.6789C115.367 46.4397 115.468 46.2272 115.626 46.0384C115.783 45.8497 116 45.6915 116.273 45.5572C116.536 45.435 116.804 45.3651 117.076 45.3636C117.349 45.3621 117.616 45.4251 117.872 45.5552C118.128 45.6853 118.369 45.8759 118.603 46.1242C118.829 46.3753 119.032 46.6828 119.205 47.0496C119.441 47.5542 119.571 48.0084 119.587 48.4149C119.604 48.8214 119.52 49.1909 119.335 49.5234C119.15 49.8558 118.858 50.154 118.471 50.4124L117.861 49.5059C118.252 49.2381 118.496 48.9362 118.58 48.6056C118.664 48.275 118.595 47.8741 118.378 47.4164C118.278 47.2076 118.168 47.0337 118.047 46.8881C117.925 46.7425 117.797 46.6385 117.664 46.5601C117.533 46.4883 117.393 46.4515 117.26 46.4509C117.127 46.4503 116.992 46.4819 116.861 46.543C116.652 46.6434 116.511 46.7784 116.437 46.9412C116.363 47.1039 116.344 47.3067 116.368 47.5387C116.392 47.7707 116.451 48.0509 116.526 48.3712L116.711 49.076C116.814 49.5022 116.864 49.8951 116.866 50.2454C116.867 50.5956 116.791 50.9073 116.631 51.1672C116.474 51.4337 116.211 51.6499 115.833 51.8344C115.533 51.9797 115.239 52.0443 114.961 52.0324C114.677 52.0232 114.407 51.9536 114.145 51.8101C113.884 51.6666 113.64 51.4693 113.412 51.1954C113.184 50.9216 112.982 50.5979 112.795 50.2138C112.599 49.8096 112.477 49.4305 112.413 49.082C112.35 48.7334 112.352 48.4127 112.411 48.1158C112.477 47.8162 112.599 47.5404 112.794 47.2898C112.988 47.0391 113.244 46.8029 113.573 46.5756L114.18 47.5144Z" fill="#706A75"/>
<path d="M115.565 57.2098L122.217 55.1785L121.886 54.0934L115.234 56.1248L115.565 57.2098Z" fill="#706A75"/>
<path d="M121.2 60.2853C121.578 60.3342 121.928 60.4262 122.241 60.5641C122.555 60.7019 122.842 60.8896 123.077 61.1218C123.318 61.3513 123.517 61.6293 123.674 61.9398C123.831 62.2503 123.934 62.5986 123.991 62.9888C124.067 63.5426 124.046 64.0272 123.918 64.4613C123.789 64.8955 123.572 65.2643 123.253 65.5734C122.941 65.8797 122.535 66.1302 122.04 66.3153L121.652 65.2251C121.993 65.1025 122.281 64.9466 122.513 64.7508C122.746 64.5549 122.903 64.3273 122.996 64.0557C123.088 63.7841 123.11 63.4713 123.06 63.1173C123.025 62.8585 122.955 62.6295 122.845 62.4167C122.738 62.2106 122.603 62.0315 122.429 61.8916C122.255 61.7516 122.053 61.6386 121.826 61.5594C121.596 61.4734 121.334 61.4238 121.06 61.4025C120.786 61.3812 120.473 61.399 120.146 61.4383C119.821 61.4844 119.53 61.5558 119.266 61.6552C119.002 61.7546 118.769 61.8726 118.57 62.0159C118.371 62.1592 118.209 62.3185 118.09 62.507C117.962 62.6915 117.882 62.8959 117.832 63.1189C117.788 63.3393 117.782 63.5916 117.819 63.8571C117.872 64.2178 117.978 64.5178 118.154 64.7584C118.323 65.0017 118.552 65.1816 118.831 65.3103C119.109 65.4389 119.441 65.5069 119.824 65.5075L119.764 66.6471C119.227 66.6312 118.759 66.517 118.358 66.2978C117.959 66.0853 117.64 65.7784 117.388 65.3892C117.143 64.9974 116.985 64.5312 116.902 63.9802C116.857 63.6396 116.843 63.3176 116.879 63.0221C116.913 62.72 116.987 62.4405 117.101 62.1836C117.215 61.9266 117.36 61.6883 117.542 61.482C117.723 61.2757 117.929 61.0908 118.175 60.9284C118.421 60.766 118.695 60.6317 119.004 60.5294C119.311 60.4203 119.638 60.3421 119.986 60.2945C120.418 60.2439 120.821 60.2363 121.2 60.2853Z" fill="#706A75"/>
<path d="M119.786 71.1217C119.446 71.1504 119.161 71.2352 118.932 71.3827C118.703 71.5302 118.526 71.7271 118.398 71.9895C118.27 72.2518 118.201 72.5609 118.185 72.926C118.174 73.1877 118.185 73.4252 118.225 73.6195C118.267 73.8206 118.322 73.9934 118.405 74.1392C118.487 74.285 118.583 74.3865 118.714 74.4582C118.842 74.5233 118.984 74.5668 119.143 74.5727C119.365 74.5835 119.551 74.5396 119.704 74.4381C119.852 74.3393 119.974 74.1803 120.071 73.9772C120.168 73.774 120.257 73.5118 120.331 73.1934L120.507 72.4745C120.583 72.1628 120.674 71.8684 120.793 71.602C120.904 71.3384 121.039 71.1122 121.205 70.9275C121.366 70.7455 121.558 70.6048 121.786 70.5124C122.014 70.4199 122.279 70.3822 122.583 70.3993C122.877 70.4125 123.141 70.4849 123.38 70.6137C123.62 70.7426 123.826 70.924 123.99 71.1539C124.156 71.3905 124.277 71.669 124.358 72.0027C124.436 72.3297 124.469 72.6985 124.453 73.1025C124.422 73.6609 124.321 74.1231 124.143 74.4918C123.965 74.8604 123.716 75.149 123.392 75.3507C123.068 75.5524 122.672 75.674 122.205 75.7154L122.099 74.6277C122.57 74.5768 122.923 74.426 123.156 74.1751C123.39 73.9242 123.514 73.5384 123.541 73.0283C123.556 72.7961 123.543 72.5908 123.499 72.4059C123.455 72.2209 123.399 72.0642 123.318 71.9412C123.234 71.8115 123.135 71.7195 123.013 71.6517C122.892 71.5839 122.762 71.5511 122.617 71.5398C122.384 71.5249 122.195 71.5783 122.054 71.6905C121.912 71.8026 121.799 71.9656 121.71 72.1888C121.618 72.4054 121.539 72.6715 121.452 72.9954L121.28 73.7049C121.165 74.1336 121.023 74.4953 120.86 74.8035C120.696 75.1117 120.48 75.3477 120.217 75.5089C119.955 75.67 119.616 75.7376 119.193 75.7144C118.866 75.6987 118.574 75.6144 118.329 75.4722C118.084 75.3299 117.882 75.1391 117.717 74.8864C117.555 74.6403 117.435 74.3458 117.365 73.9999C117.295 73.6541 117.27 73.2664 117.287 72.8463C117.306 72.394 117.375 72.0071 117.486 71.6657C117.6 71.3309 117.749 71.0443 117.952 70.8137C118.148 70.5858 118.393 70.4007 118.682 70.2676C118.971 70.1345 119.312 70.0508 119.708 70.007L119.786 71.1217Z" fill="#706A75"/>
<path d="M120.446 83.028C119.767 85.6592 121.362 88.3571 123.994 89.0353L123.8 89.769C122.529 89.4431 121.198 89.6248 120.058 90.298C118.926 90.9684 118.119 92.0369 117.788 93.3176L117.054 93.1243C117.381 91.8531 117.193 90.5256 116.52 89.3873C115.842 88.2355 114.781 87.4496 113.507 87.117L113.701 86.3832C114.972 86.7091 116.3 86.5207 117.436 85.857C118.568 85.1866 119.375 84.1181 119.706 82.8374L120.446 83.028ZM120.396 87.2674C119.953 86.5586 119.668 85.7617 119.566 84.9141C119.107 85.5527 118.516 86.0967 117.826 86.5098C117.132 86.9161 116.37 87.1712 115.597 87.2667C116.233 87.7181 116.777 88.3083 117.183 89.0012C117.589 89.6941 117.851 90.4536 117.939 91.2287C118.398 90.5901 118.982 90.0489 119.675 89.6425C120.373 89.2267 121.129 88.9744 121.911 88.8829C121.296 88.4461 120.785 87.8973 120.396 87.2674Z" fill="#706A75"/>
</g>
<defs>
<clipPath id="clip0">
<rect x="40.6522" y="140.767" width="108.054" height="108.054" transform="rotate(-112.1 40.6522 140.767)" fill="white"/>
</clipPath>
</defs>
</svg>
